name IK_average_walking_HGC.mot																															
datacolumns 32																															
datarows 16																															
range 0 0.15764463																															
endheader																															
time	pelvis_tilt	pelvis_list	pelvis_rotation	pelvis_tx	pelvis_ty	pelvis_tz	hip_flexion_l	hip_adduction_l	hip_rotation_l	hip_flexion_r	hip_adduction_r	hip_rotation_r	knee_angle_l	knee_angle_r	ankle_angle_l	ankle_angle_r	subtalar_angle_l	subtalar_angle_r	mtp_angle_l	mtp_angle_r	lumbar_extension	lumbar_bending	lumbar_rotation	arm_flex_l	arm_add_l	arm_rot_l	arm_flex_r	arm_add_r	arm_rot_r	elbow_flex_l	elbow_flex_r
0	0.72832916	1.75641812	-0.66651429	0	0.90250743	0.04917596	-14.54969682	5.33840652	-0.31916405	27.34333447	0.42741346	-3.99889776	-14.31438468	-12.24917255	13.00158272	3.68135485	3.79280167	5.85410701	0	0	-8.30626924	-2.66092991	-6.41988433	3.66448123	-22.53073714	11.74146677	-5.82046801	-14.09046361	15.89781075	39.62486884	13.90032155
0.01050964	0.7142988	1.65291955	-0.59917375	0.01486319	0.90102015	0.05016075	-15.00711695	5.06052975	-0.45926639	27.39121288	0.66372928	-4.0369281	-15.24571414	-12.67393714	12.59403713	3.22419556	4.26957149	5.90963816	0	0	-8.11882805	-2.48328894	-6.51729865	3.43355769	-22.47287353	11.38411429	-5.91429089	-14.02983748	16.24194822	39.87417411	13.53637836
0.02101928	0.6878947	1.48633404	-0.56240434	0.02995425	0.8996429	0.05121114	-15.35608643	4.70548918	-0.67396629	27.43139554	0.99561273	-3.92954678	-16.34307299	-13.44527412	11.96244025	2.54188331	4.76972443	5.59388316	0	0	-7.88682446	-2.22748815	-6.56052605	3.13050196	-22.36300284	11.00636811	-6.01180204	-13.99442737	16.6135472	40.05353751	13.19844597
0.03152893	0.64804069	1.24739884	-0.56434586	0.04523876	0.89840242	0.05233249	-15.58235903	4.26620714	-0.9617829	27.46439068	1.43210619	-3.67988924	-17.61830929	-14.49424114	11.0608092	1.65709527	5.27422212	4.93480757	0	0	-7.61449456	-1.88373836	-6.54082013	2.76381118	-22.19877027	10.61273709	-6.10954337	-13.9865421	17.00139721	40.15580915	12.89090251
0.04203857	0.5943421	0.92974701	-0.61035513	0.06066727	0.89733135	0.0535269	-15.66921121	3.73877362	-1.31345844	27.49054399	1.97699092	-3.30120767	-19.08606126	-15.74878961	9.84889217	0.61550008	5.75885338	3.98637927	0	0	-7.30896138	-1.44595606	-6.45304276	2.34431566	-21.97973036	10.20978077	-6.20211509	-14.00725624	17.39253613	40.17470166	12.61889651
0.05254821	0.52728784	0.53116487	-0.70159242	0.07618072	0.89646465	0.05479033	-15.59871722	3.12348453	-1.71167095	27.50786955	2.6274625	-2.8154093	-20.7623484	-17.13889243	8.29926745	-0.51659695	6.19487049	2.82283489	0	0	-6.97989363	-0.91305417	-6.29707804	1.8843595	-21.70775863	9.80630482	-6.28289624	-14.05638939	17.77295691	40.10526716	12.38848857
0.06305785	0.44823853	0.05456357	-0.83416245	0.09171646	0.89583289	0.0561106	-15.35316593	2.42563246	-2.13168605	27.51015769	3.3735554	-2.25118233	-22.66258094	-18.59979887	6.40426084	-1.65775688	6.54984611	1.53111381	0	0	-6.63877555	-0.28979491	-6.07850465	1.39703901	-21.38723531	9.41350052	-6.34495602	-14.13262268	18.12833436	39.94405839	12.20673498
0.07356749	0.35927731	-0.49152636	-0.99884992	0.10721306	0.89545532	0.05746667	-14.91619399	1.65597833	-2.54272254	27.48597245	4.19814366	-1.64240441	-24.79939317	-20.0727637	4.18147128	-2.7187582	6.78854722	0.20324683	0	0	-6.29799188	0.41290868	-5.80851017	0.8957112	-21.02499705	9.04508178	-6.38193549	-14.23369958	18.4445979	39.68894813	12.08173844
0.08407713	0.26324932	-1.09269441	-1.18118232	0.12261238	0.89533514	0.05882902	-14.27429619	0.83123922	-2.90949572	27.4192117	5.07667024	-1.02844949	-27.17912089	-21.50410663	1.68019883	-3.61139145	6.8743228	-1.06850917	0	0	-5.97012405	1.17778891	-5.50280558	0.39421444	-20.63035768	8.71744243	-6.38851173	-14.35644613	18.70935316	39.33949043	12.02168794
0.09458678	0.16378288	-1.72942918	-1.36350361	0.13786436	0.89545607	0.060165	-13.42318895	-0.02588038	-3.19790633	27.29208248	5.97944448	-0.44879133	-29.79344191	-22.84891702	-1.01367101	-4.26432777	6.77664454	-2.20383731	0	0	-5.66674509	1.98204072	-5.17969116	-0.09370817	-20.21479109	8.44777668	-6.36168294	-14.49671439	18.91393568	38.8979522	12.033392
0.10509642	0.06469086	-2.38036852	-1.52715482	0.15292513	0.89579622	0.06144151	-12.36288329	-0.88956261	-3.37736197	27.08660062	6.87467802	0.05894345	-32.62428746	-24.06943265	-3.79113053	-4.62747104	6.46978028	-3.13943745	0	0	-5.39778287	2.80086809	-4.85676989	-0.55454867	-19.79010664	8.253811	-6.30003912	-14.65018407	19.05287104	38.36672477	12.12266574
0.11560606	-0.03017009	-3.02369801	-1.65411024	0.16775698	0.89633354	0.06262698	-11.09863312	-1.73189832	-3.42412414	26.78696393	7.7301306	0.46080991	-35.6415782	-25.13529486	-6.52638081	-4.67602517	5.93644484	-3.83045437	0	0	-5.17114399	3.60888461	-4.5491868	-0.97504892	-19.36789765	8.15278581	-6.20362348	-14.81251459	19.1242303	37.74858626	12.29358671
0.1261157	-0.11712803	-3.63851094	-1.72864007	0.18232944	0.89705003	0.06369297	-9.64086718	-2.52442973	-3.32414348	26.38128608	8.51518148	0.72907413	-38.80289208	-26.02422026	-9.08745073	-4.41167957	5.17150976	-4.25158709	0	0	-4.99238014	4.38161573	-4.26814351	-1.34273848	-18.9588178	8.16002008	-6.07364382	-14.97954694	19.12994366	37.04689399	12.54784914
0.13662534	-0.19302209	-4.20583414	-1.73900813	0.19662159	0.89793267	0.06461634	-8.00526675	-3.23996324	-3.07520139	25.86289163	9.20318929	0.84516544	-42.05396164	-26.72289273	-11.3491469	-3.86136454	4.18588025	-4.39763125	0	0	-4.86430046	5.09675333	-4.01980848	-1.64696806	-18.57191318	8.28725648	-5.91223237	-15.14753118	19.07575152	36.26582487	12.88432978
0.14713499	-0.25557989	-4.7094901	-1.67898814	0.21062469	0.89897272	0.06538206	-6.21273788	-3.85464176	-2.68755336	25.23076322	9.7739888	0.80258494	-45.3307241	-27.22739363	-13.20741592	-3.0726108	3.00908374	-4.28285913	0	0	-4.78668381	5.73528507	-3.80489708	-1.88036896	-18.21395828	8.54079383	-5.72224598	-15.31334633	18.97083471	35.41049757	13.29884652
0.15764463	-0.30365156	-5.13600443	-1.5478256	0.22433989	0.90016489	0.06598377	-4.28692243	-4.34878751	-2.18181199	24.48813433	10.21414977	0.60670861	-48.56305085	-27.54048413	-14.58687586	-2.10436805	1.68715118	-3.93595442	0	0	-4.75679206	6.28134819	-3.61966771	-2.03954934	-17.88956418	8.92114034	-5.50672798	-15.47469369	18.82649591	34.48743838	13.78512783
